<?xml version="1.0" encoding="utf-8"?>
<!-- Generator: Adobe Illustrator 19.0.0, SVG Export Plug-In . SVG Version: 6.00 Build 0)  -->
<svg version="1.1" id="Layer_1" xmlns="http://www.w3.org/2000/svg" xmlns:xlink="http://www.w3.org/1999/xlink" x="0px" y="0px"
	 width="1400px" height="1400px" viewBox="0 0 1400 1400" enable-background="new 0 0 1400 1400" xml:space="preserve">
<g id="XMLID_1_">
	<g id="XMLID_15_">
		<defs>
			<rect id="XMLID_14_" width="1400" height="1400"/>
		</defs>
		<clipPath id="XMLID_6_">
			<use xlink:href="#XMLID_14_"  overflow="visible"/>
		</clipPath>
		<rect id="XMLID_1090_" clip-path="url(#XMLID_6_)" fill="#FFFFFF" width="1400" height="1400"/>
		<linearGradient id="XMLID_7_" gradientUnits="userSpaceOnUse" x1="545.5574" y1="620.4727" x2="605.6047" y2="-17.5292">
			<stop  offset="0.2151" style="stop-color:#FF76BB"/>
			<stop  offset="0.8065" style="stop-color:#FFEAE4"/>
			<stop  offset="1" style="stop-color:#FFFFFF"/>
		</linearGradient>
		<path id="XMLID_13_" clip-path="url(#XMLID_6_)" fill="url(#XMLID_7_)" d="M966,248.8c-7.1-2.6-14.6-4.2-22.4-4.4
			c-27.5-0.8-59.2,11.5-80-6.6c-7.8-6.8-12-16.5-17.7-25.1c-28.2-42.9-86.8-51.9-138.1-51.9c-12,0-24.2,0.2-35.6-3.3
			c-34.1-10.5-53.5-47.9-65.5-78.6C592,41,569.1,5.2,535.6-17.7C476-58.3,392.7-49.6,330.8-12.6S224.7,84.7,187.6,146.6
			c-29.7,49.6-56.6,103.2-60.3,161c-0.4,6.5-0.5,13.2,1.4,19.5c3.4,11.2,12.8,19.6,22.3,26.6c31.2,23.1,67.5,38.5,104,51.6
			c124.6,44.8,260.3,64.8,390.5,33.6c59.7-14.3,117-45.3,177.1-62.2c64.2-18,130.1-30.2,196.5-36.2
			C1027.2,302.6,1001.6,262,966,248.8z"/>
		<linearGradient id="XMLID_8_" gradientUnits="userSpaceOnUse" x1="1222.7432" y1="704.839" x2="1146.7432" y2="142.839">
			<stop  offset="0.3763" style="stop-color:#91B6D1"/>
			<stop  offset="0.7419" style="stop-color:#D3F4FF"/>
			<stop  offset="1" style="stop-color:#FFFFFF"/>
		</linearGradient>
		<path id="XMLID_4_" clip-path="url(#XMLID_6_)" fill="url(#XMLID_8_)" d="M1604,84.1c-56.8-57.5-134.2-95-214.9-100.5
			c-80.6-5.5-163.7,22.2-222.6,77.5c-50.7,47.7-87.3,116.8-153.8,137.6c-31.5,9.8-65.7,7-97.9,14.3c-54.1,12.3-98.5,52.7-127.8,99.8
			s-45.7,101-61.6,154.1c50.6,0.4,101.3,0.8,151.9,1.1c67,0.5,134.1,1,200.7-5.8c48.7-4.9,97.4-13.8,146.3-12.1
			c28.9,1,57.6,5.6,86.5,7.8c55.6,4.3,111.8-0.1,166-13.2L1604,84.1z"/>
		<linearGradient id="XMLID_9_" gradientUnits="userSpaceOnUse" x1="31.7365" y1="602.5084" x2="227.7365" y2="60.5084">
			<stop  offset="0" style="stop-color:#91B6D1"/>
			<stop  offset="0.5108" style="stop-color:#D3F4FF"/>
			<stop  offset="1" style="stop-color:#FFFFFF"/>
		</linearGradient>
		<path id="XMLID_3_" clip-path="url(#XMLID_6_)" fill="url(#XMLID_9_)" d="M-246.3-120.7c89.2-15.3,183.8-30,267.9,3.4
			c19.4,7.7,38.1,18,52.9,32.8C86.9-72.3,96.2-57.3,104-41.8c14.4,28.4,24.2,59,29.1,90.5c4.1,26.8,6,57,25.9,75.4
			c23.4,21.6,59.7,16.6,91.4,19.6c44.3,4.2,86.4,27.7,113.2,63.1c11,14.5,20,31.4,35.1,41.6c17.3,11.6,39.3,12.5,59.8,15.7
			c68.4,10.7,135,59.1,147.2,127.3c5.9,32.8-1,67,5.9,99.6c-276.5-10.6-553-21.1-829.5-31.7L-246.3-120.7z"/>
		<linearGradient id="XMLID_10_" gradientUnits="userSpaceOnUse" x1="724.7679" y1="1014.9562" x2="658.7679" y2="268.9562">
			<stop  offset="0.2151" style="stop-color:#FF76BB"/>
			<stop  offset="0.8065" style="stop-color:#FFEAE4"/>
			<stop  offset="1" style="stop-color:#FFFFFF"/>
		</linearGradient>
		<path id="XMLID_2_" clip-path="url(#XMLID_6_)" fill="url(#XMLID_10_)" d="M1297.6,399.1c-79.4,17.6-165.7,34.5-239.5,0.2
			c-58-26.9-99-81.9-156.3-110.2c-55.9-27.6-125-26.3-179.9,3.2c-47.1,25.4-83,69.7-132.5,90.2c-93.2,38.5-200.4-18.3-299.4,0.4
			c-51.4,9.7-97.3,39.4-134.5,76.1s-66.9,80.2-96.3,123.5c114.7,42.9,230.5,86,351.5,104.7c89,13.7,179.4,13.9,269.4,12.1
			c112.7-2.2,229.2-8.5,329.9-59.2L1297.6,399.1z"/>
		<path id="XMLID_117_" clip-path="url(#XMLID_6_)" fill="#FFFFFF" d="M1430.1,314.1c-16.2-19.5-41.7-28.7-66.5-34.4
			c-110.3-25.2-232.1,6.9-315.8,83c-15.3,13.9-29.4,29.2-39.9,47c-13.6,22.8-20.9,48.9-35,71.4c-17,27-43.7,47.7-74,57.5
			c-24.7,7.9-51.2,8.7-76.7,13.6c-87.7,16.9-162.8,87.5-185,174.1c176.4,79.9,382.5,91.9,567,33.1c53.1-16.9,104.2-39.4,154.3-63.7
			c25.5-12.4,50.7-25.3,75.7-38.7c5.9-3.2,12-6.6,15.5-12.3c3.5-5.7,3.2-14.3-2.4-17.9L1430.1,314.1z"/>
		
			<linearGradient id="XMLID_11_" gradientUnits="userSpaceOnUse" x1="13068.4307" y1="952.6636" x2="13042.625" y2="402.1561" gradientTransform="matrix(-1 0 0 1 13280.9453 0)">
			<stop  offset="0.2151" style="stop-color:#FF76BB"/>
			<stop  offset="0.8065" style="stop-color:#FFEAE4"/>
			<stop  offset="1" style="stop-color:#FFFFFF"/>
		</linearGradient>
		<path id="XMLID_122_" clip-path="url(#XMLID_6_)" fill="url(#XMLID_11_)" d="M-188.9,344.5c100.8-34.4,218.5-13.8,301.5,52.9
			c24.4,19.6,45.9,42.8,70.7,61.9c24.8,19.1,54.3,34.4,85.7,34.5c21,0.1,41.4-6.7,62.2-10c41.9-6.7,85.9,0.8,123.1,21.1
			c36.5,19.9,63.1,51.3,95.7,76.3c31.8,24.4,61.8,39.8,87.6,72.2c8.8,11,18.1,23.5,17.2,37.6c-1,15.9-14.6,27.9-27.5,37.3
			c-130.5,95.1-298.8,126.7-460.1,118.9c-60.5-2.9-123.1-11.8-173.7-45c-21-13.8-39.3-31.3-57.4-48.7
			c-17.9-17.3-37.3-36.4-43.5-61.3c-5.2-20.6-2.9-42.7-7.8-63.7c-8.7-37.6-19.5-74.8-29.2-112.2C-159.3,459-174.1,401.8-188.9,344.5
			z"/>
		<linearGradient id="XMLID_12_" gradientUnits="userSpaceOnUse" x1="706.6422" y1="1316.7964" x2="740.0551" y2="477.76">
			<stop  offset="0.3763" style="stop-color:#91B6D1"/>
			<stop  offset="0.7419" style="stop-color:#D3F4FF"/>
			<stop  offset="1" style="stop-color:#FFFFFF"/>
		</linearGradient>
		<path id="XMLID_115_" clip-path="url(#XMLID_6_)" fill="url(#XMLID_12_)" d="M619.5,1067.6c-78.9-1.8-159.3-3.8-235.8-25
			C309.2,1022,249,976.4,196.7,920c-8.5-9.2-16.8-18.8-22.3-30c-22-44.7-14.5-97.7,22.3-133.3c46.5-45,124.8-47.6,165.8-97.7
			c14.1-17.2,22.2-38.4,33.4-57.5c26.3-44.6,70.9-77.9,121.1-90.5c50.2-12.6,105.3-4.2,149.4,22.8c42.2,25.7,53.4,83,99.9,105.4
			c31.7,15.3,69,8.6,103.9,4.1s74.5-4.8,100.3,19.1c10.8,10,18,23.3,27.7,34.4c20.4,22.9,50.8,34.3,80.8,40.6
			c30,6.4,60.9,8.7,90.2,17.7c51.7,15.9,114.9,58.8,118.2,116.7c5.8,99.5-104.6,151.3-185,168.8
			C944.6,1075.1,781.1,1071.2,619.5,1067.6z"/>
		<linearGradient id="XMLID_16_" gradientUnits="userSpaceOnUse" x1="1050.8706" y1="1409.2704" x2="976.8706" y2="597.2704">
			<stop  offset="0.2151" style="stop-color:#FF76BB"/>
			<stop  offset="0.8065" style="stop-color:#FFEAE4"/>
			<stop  offset="1" style="stop-color:#FFFFFF"/>
		</linearGradient>
		<path id="XMLID_124_" clip-path="url(#XMLID_6_)" fill="url(#XMLID_16_)" d="M1487.8,649.4c0.7-11.4,1.7-22.9,0.7-34.5
			c-6.9-82.3-121.2-95.8-185-81.2c-57.1,13.1-107.9,51.4-136.3,102.6c-18.4,33.3-30.3,74.2-63.7,92.4c-36,19.5-83.1,4-119.7,22.3
			c-56.7,28.3-72,116.8-152.7,95.9c-17.6-4.6-33.1-15-49-23.8c-32.4-17.9-68.8-29.7-105.9-29.3c-37,0.4-74.6,13.9-100.3,40.5
			c-12.9,13.3-22.4,29.4-31.9,45.4c-27.2,45.9-33,102.4-36.2,154.7c-0.5,7.4-0.8,15.3,2.4,22c3.3,6.9,9.9,11.5,16.4,15.4
			c20.4,12.2,43.7,22.6,65,33.1c28.1,13.8,63.6,11.9,93.7,18.7c30.6,6.9,61.2,12.4,92.8,15.7c245.5,25.6,492.1,41.5,738.9,47.5
			c9.1,0.2,22.2-5.1,18.3-13.3c-7.1-15.1-4-44.2-5.5-60.5c-4.3-47.2-8.5-94.5-12.8-141.7c-6.4-70.7-12.8-141.4-19.2-212.1
			c-2.2-24-4.3-48.3-8.9-71.6C1486.4,674.6,1487,662,1487.8,649.4z"/>
		<path id="XMLID_123_" clip-path="url(#XMLID_6_)" fill="#FFFFFF" d="M-43.3,575.9c118-33.7,254.4,10.7,330.1,107.4
			c27.6,35.3,47.3,76.2,72.9,113c25.6,36.8,59.5,70.7,102.9,82.2c44.5,11.8,94.5-1.2,136.1,18.7c53.7,25.7,71.6,95.1,119.9,130
			c34.3,24.8,82.8,28.2,120.2,8.6c21.8-11.4,39.4-29.5,60.1-42.8c73.3-47,174.8-23.9,242.5,30.9c67.7,54.8,109.3,134.7,149,212.2
			c-127.2,18.4-256.6,3.2-384.6-8.6c-200.5-18.5-401.9-28.7-603.2-23.5c-98.7,2.5-197.9,8.8-295.8-4.4
			c-53.2-7.2-105.8-20-159.4-22.9L-43.3,575.9z"/>
		<linearGradient id="XMLID_17_" gradientUnits="userSpaceOnUse" x1="423.1306" y1="1554.1719" x2="423.1306" y2="811.5895">
			<stop  offset="0.3763" style="stop-color:#91B6D1"/>
			<stop  offset="0.7419" style="stop-color:#D3F4FF"/>
			<stop  offset="1" style="stop-color:#FFFFFF"/>
		</linearGradient>
		<path id="XMLID_1089_" clip-path="url(#XMLID_6_)" fill="url(#XMLID_17_)" d="M-42.8,961.4c-0.7-11.4-1.7-22.9-0.7-34.5
			c6.9-82.3,121.2-95.8,185-81.2c57.1,13.1,107.9,51.4,136.3,102.6c18.4,33.3,30.3,74.2,63.7,92.4c36,19.5,83.1,4,119.7,22.3
			c56.7,28.3,72,116.8,152.7,95.9c17.6-4.6,33.1-15,49-23.8c32.4-17.9,68.8-29.7,105.9-29.3c37,0.4,74.6,13.9,100.3,40.5
			c12.9,13.3,22.4,29.4,31.9,45.4c27.2,45.9,33,102.4,36.2,154.7c0.5,7.4,0.8,15.3-2.4,22c-3.3,6.9-9.9,11.5-16.4,15.4
			c-20.4,12.2-43.7,22.6-65,33.1c-28.1,13.8-63.6,11.9-93.7,18.7c-30.6,6.9-61.2,12.4-92.8,15.7c-245.5,25.6-492.1,41.5-738.9,47.5
			c-9.1,0.2-22.2-5.1-18.3-13.3c7.1-15.1,4-44.2,5.5-60.5c4.3-47.2,8.5-94.5,12.8-141.7c6.4-70.7,12.8-141.4,19.2-212.1
			c2.2-24,4.3-48.3,8.9-71.6C-41.5,986.6-42,974-42.8,961.4z"/>
		<g id="XMLID_1087_" clip-path="url(#XMLID_6_)">
			<path id="XMLID_1088_" fill="#00364F" d="M1271.9,1007.4c45.7,36.9,84.6,81.7,115.1,131.8c15.5,25.4,28.7,52.3,40,79.8
				c12.1,29.5,19.9,59.3,25.7,90.6c6.5,34.9,12.3,70.2,8.3,105.7c-0.3,2.3-3.8,1.7-3.6-0.7c3.5-31.3-0.7-62.4-6.2-93.2
				c-5.6-31.3-12.1-61.6-23.6-91.3c-21.1-54.5-50.4-105.9-87.8-150.9c-21.1-25.3-44.6-48.5-70.2-69.2
				C1267.7,1008.6,1270.1,1005.9,1271.9,1007.4L1271.9,1007.4z"/>
		</g>
		<path id="XMLID_1086_" clip-path="url(#XMLID_6_)" fill="#00364F" d="M1447.1,1292.7c35.9,1.4,49.4-31.5,48.8-72.3
			C1453.8,1224.5,1440.7,1275.2,1447.1,1292.7z"/>
		<path id="XMLID_1018_" clip-path="url(#XMLID_6_)" fill="#00364F" d="M1443.8,1286.6c2.4-49-54.5-57.3-71-51.5
			C1385.9,1293,1443.8,1286.6,1443.8,1286.6z"/>
		<path id="XMLID_1017_" clip-path="url(#XMLID_6_)" fill="#00364F" d="M1421.3,1211.4c37.4,2.2,51.4-48.3,43.5-70.3
			C1428.1,1150.9,1414.8,1189,1421.3,1211.4z"/>
		<path id="XMLID_1016_" clip-path="url(#XMLID_6_)" fill="#00364F" d="M1384,1135.7c29.7-5.6,30.7-47.8,20.2-63.5
			C1377.4,1087.1,1374.5,1119.5,1384,1135.7z"/>
		<path id="XMLID_1015_" clip-path="url(#XMLID_6_)" fill="#00364F" d="M1330.4,1063.8c21.9-11.4,12.8-44.6,0.9-54.4
			C1313.8,1027.3,1319.2,1053.3,1330.4,1063.8z"/>
		<path id="XMLID_1014_" clip-path="url(#XMLID_6_)" fill="#00364F" d="M1281.3,1019.6c1.8-24.6-31.3-34.3-45.9-29.3
			C1241.5,1014.6,1266.4,1023.7,1281.3,1019.6z"/>
		<path id="XMLID_1013_" clip-path="url(#XMLID_6_)" fill="#00364F" d="M1418.7,1204.5c-18.5-44.6-56-47.6-80.2-36.6
			C1353.8,1209.1,1403.5,1214.9,1418.7,1204.5z"/>
		<path id="XMLID_1012_" clip-path="url(#XMLID_6_)" fill="#00364F" d="M1375.7,1129c-16.1-38.8-48.8-41.4-69.8-31.8
			C1319.2,1133.1,1362.5,1138.2,1375.7,1129z"/>
		<path id="XMLID_1011_" clip-path="url(#XMLID_6_)" fill="#00364F" d="M1323.7,1056.5c-22.5-30-51.3-25-67.4-12
			C1275.7,1072.6,1314.3,1067.4,1323.7,1056.5z"/>
		<linearGradient id="XMLID_18_" gradientUnits="userSpaceOnUse" x1="878.0545" y1="1769.5372" x2="878.0545" y2="871.6149">
			<stop  offset="0.2151" style="stop-color:#FF76BB"/>
			<stop  offset="0.8065" style="stop-color:#FFEAE4"/>
			<stop  offset="1" style="stop-color:#FFFFFF"/>
		</linearGradient>
		<path id="XMLID_1009_" clip-path="url(#XMLID_6_)" fill="url(#XMLID_18_)" d="M1490.2,799.9c-118-33.7-254.4,10.7-330.1,107.4
			c-27.6,35.3-47.3,76.2-72.9,113c-25.6,36.8-59.5,70.7-102.9,82.2c-44.5,11.8-94.5-1.2-136.1,18.7c-53.7,25.7-71.6,95.1-119.9,130
			c-34.3,24.8-82.8,28.2-120.2,8.6c-21.8-11.4-39.4-29.5-60.1-42.8c-73.3-47-174.8-23.9-242.5,30.9
			c-67.7,54.8-109.3,134.7-149,212.2c127.2,18.4,256.6,3.2,384.6-8.6c200.5-18.5,401.9-28.7,603.2-23.5
			c98.7,2.5,197.9,8.8,295.8-4.4c53.2-7.2,105.8-20,159.4-22.9L1490.2,799.9z"/>
		<linearGradient id="XMLID_19_" gradientUnits="userSpaceOnUse" x1="1253.2885" y1="1587.7888" x2="1235.2892" y2="1203.8091">
			<stop  offset="0.3763" style="stop-color:#91B6D1"/>
			<stop  offset="0.7419" style="stop-color:#D3F4FF"/>
			<stop  offset="1" style="stop-color:#FFFFFF"/>
		</linearGradient>
		<path id="XMLID_1007_" clip-path="url(#XMLID_6_)" fill="url(#XMLID_19_)" d="M1662,1164.1c-100.8-34.4-218.5-13.8-301.5,52.9
			c-24.4,19.6-45.9,42.8-70.7,61.9c-24.8,19.1-54.3,34.4-85.7,34.5c-21,0.1-41.4-6.7-62.2-10c-41.9-6.7-85.9,0.8-123.1,21.1
			c-35.4,19.3-63.7,49.1-94.3,75.4c-30.6,26.3-65.9,50.4-106.1,54.1c58.6,4,117.2,7.9,175.8,11.9c77.9,5.3,155.8,10.5,233.2,20.2
			c62,7.8,123.9,18.3,186.4,20.3c62.5,1.9,126.4-5.2,183.2-31.4c-4.6-2.3-9.1-4.6-13.7-6.9L1662,1164.1z"/>
		<path id="XMLID_1006_" clip-path="url(#XMLID_6_)" fill="#FFFFFF" d="M562.6,1445.3c-38.4-59.2-113.9-91.9-183.3-79.3
			c-25.2,4.6-53.4,13.9-74.7-0.3c-9.1-6.1-15.2-15.5-21.2-24.6c-14.8-22.3-30.8-44.3-51.5-61.3c-20.7-17.1-46.6-29-73.3-28.6
			c-24.6,0.4-50.6,10.8-72.9,0.3c-12.4-5.9-21-17.3-31.4-26.1c-30.3-25.7-78.2-27.9-110.7-4.9c-6.1,4.3-11.8,9.7-14.1,16.7
			c-2.8,8.5-0.1,17.7,2.3,26.3c16.5,57.9,23.2,118.6,19.7,178.7L562.6,1445.3z"/>
		<rect id="XMLID_55_" x="0" y="0" clip-path="url(#XMLID_6_)" fill="none" width="1400" height="1400"/>
	</g>
</g>
</svg>
